<mxfile host="app.diagrams.net" modified="2021-08-27T01:15:30.120Z" agent="5.0 (Windows NT 10.0; Win64; x64) AppleWebKit/537.36 (KHTML, like Gecko) Chrome/92.0.4515.159 Safari/537.36" etag="xql2VPCf_Sg6qF-ZgKrv" version="14.9.8" type="github">
  <diagram id="VrKD0ewOHlVVfgMDHuje" name="ページ1">
    <mxGraphModel dx="1117" dy="620" grid="1" gridSize="10" guides="1" tooltips="1" connect="1" arrows="1" fold="1" page="1" pageScale="1" pageWidth="827" pageHeight="1169" math="0" shadow="0">
      <root>
        <mxCell id="0" />
        <mxCell id="1" parent="0" />
        <mxCell id="JIiG9f2djd5JSEeI8ZKf-5" value="" style="edgeStyle=orthogonalEdgeStyle;rounded=0;orthogonalLoop=1;jettySize=auto;html=1;entryX=0.5;entryY=0;entryDx=0;entryDy=0;" parent="1" target="JIiG9f2djd5JSEeI8ZKf-20" edge="1">
          <mxGeometry relative="1" as="geometry">
            <mxPoint x="140" y="80" as="sourcePoint" />
            <mxPoint x="140" y="140" as="targetPoint" />
          </mxGeometry>
        </mxCell>
        <mxCell id="JIiG9f2djd5JSEeI8ZKf-17" style="edgeStyle=none;rounded=0;orthogonalLoop=1;jettySize=auto;html=1;entryX=0.75;entryY=0;entryDx=0;entryDy=0;exitX=1;exitY=0.5;exitDx=0;exitDy=0;" parent="1" source="JIiG9f2djd5JSEeI8ZKf-20" target="JIiG9f2djd5JSEeI8ZKf-3" edge="1">
          <mxGeometry relative="1" as="geometry">
            <mxPoint x="360" y="230" as="targetPoint" />
            <mxPoint x="190" y="270" as="sourcePoint" />
            <Array as="points">
              <mxPoint x="440" y="160" />
              <mxPoint x="440" y="240" />
              <mxPoint x="440" y="300" />
              <mxPoint x="170" y="300" />
            </Array>
          </mxGeometry>
        </mxCell>
        <mxCell id="JIiG9f2djd5JSEeI8ZKf-8" style="edgeStyle=none;rounded=0;orthogonalLoop=1;jettySize=auto;html=1;entryX=0.5;entryY=0;entryDx=0;entryDy=0;" parent="1" source="JIiG9f2djd5JSEeI8ZKf-2" target="JIiG9f2djd5JSEeI8ZKf-3" edge="1">
          <mxGeometry relative="1" as="geometry">
            <Array as="points" />
          </mxGeometry>
        </mxCell>
        <mxCell id="HAvZMv1LIubI1ggnkloS-2" value="" style="edgeStyle=orthogonalEdgeStyle;rounded=0;orthogonalLoop=1;jettySize=auto;html=1;" edge="1" parent="1" source="JIiG9f2djd5JSEeI8ZKf-2" target="HAvZMv1LIubI1ggnkloS-1">
          <mxGeometry relative="1" as="geometry" />
        </mxCell>
        <mxCell id="JIiG9f2djd5JSEeI8ZKf-2" value="企業一覧&lt;br&gt;管理画面" style="rounded=0;whiteSpace=wrap;html=1;" parent="1" vertex="1">
          <mxGeometry x="80" y="240" width="120" height="40" as="geometry" />
        </mxCell>
        <mxCell id="JIiG9f2djd5JSEeI8ZKf-10" style="edgeStyle=none;rounded=0;orthogonalLoop=1;jettySize=auto;html=1;entryX=0.5;entryY=0;entryDx=0;entryDy=0;exitX=0.75;exitY=1;exitDx=0;exitDy=0;" parent="1" source="JIiG9f2djd5JSEeI8ZKf-3" target="JIiG9f2djd5JSEeI8ZKf-4" edge="1">
          <mxGeometry relative="1" as="geometry">
            <Array as="points">
              <mxPoint x="170" y="380" />
              <mxPoint x="260" y="380" />
              <mxPoint x="300" y="380" />
            </Array>
          </mxGeometry>
        </mxCell>
        <mxCell id="JIiG9f2djd5JSEeI8ZKf-13" style="edgeStyle=none;rounded=0;orthogonalLoop=1;jettySize=auto;html=1;exitX=0.5;exitY=1;exitDx=0;exitDy=0;" parent="1" source="JIiG9f2djd5JSEeI8ZKf-3" target="JIiG9f2djd5JSEeI8ZKf-38" edge="1">
          <mxGeometry relative="1" as="geometry">
            <mxPoint x="100" y="370" as="sourcePoint" />
            <mxPoint x="100" y="400" as="targetPoint" />
            <Array as="points" />
          </mxGeometry>
        </mxCell>
        <mxCell id="JIiG9f2djd5JSEeI8ZKf-37" style="edgeStyle=none;rounded=0;orthogonalLoop=1;jettySize=auto;html=1;entryX=0.5;entryY=0;entryDx=0;entryDy=0;exitX=1;exitY=0.75;exitDx=0;exitDy=0;" parent="1" source="JIiG9f2djd5JSEeI8ZKf-3" target="JIiG9f2djd5JSEeI8ZKf-35" edge="1">
          <mxGeometry relative="1" as="geometry">
            <mxPoint x="200" y="330" as="sourcePoint" />
            <Array as="points">
              <mxPoint x="340" y="350" />
              <mxPoint x="440" y="350" />
            </Array>
          </mxGeometry>
        </mxCell>
        <mxCell id="5xNr5Emgi43Tvl490eg--7" style="edgeStyle=orthogonalEdgeStyle;rounded=0;orthogonalLoop=1;jettySize=auto;html=1;entryX=0.5;entryY=0;entryDx=0;entryDy=0;exitX=1;exitY=0.5;exitDx=0;exitDy=0;" parent="1" source="JIiG9f2djd5JSEeI8ZKf-3" target="5xNr5Emgi43Tvl490eg--1" edge="1">
          <mxGeometry relative="1" as="geometry" />
        </mxCell>
        <mxCell id="HAvZMv1LIubI1ggnkloS-13" value="" style="edgeStyle=orthogonalEdgeStyle;rounded=0;orthogonalLoop=1;jettySize=auto;html=1;entryX=0;entryY=0.5;entryDx=0;entryDy=0;" edge="1" parent="1" source="JIiG9f2djd5JSEeI8ZKf-3" target="HAvZMv1LIubI1ggnkloS-14">
          <mxGeometry relative="1" as="geometry">
            <mxPoint x="320" y="640" as="targetPoint" />
            <Array as="points">
              <mxPoint x="40" y="340" />
              <mxPoint x="40" y="780" />
              <mxPoint x="220" y="780" />
              <mxPoint x="220" y="640" />
            </Array>
          </mxGeometry>
        </mxCell>
        <mxCell id="JIiG9f2djd5JSEeI8ZKf-3" value="棚卸表一覧&lt;br&gt;画面" style="rounded=0;whiteSpace=wrap;html=1;" parent="1" vertex="1">
          <mxGeometry x="80" y="320" width="120" height="40" as="geometry" />
        </mxCell>
        <mxCell id="JIiG9f2djd5JSEeI8ZKf-4" value="棚卸表作成・設定&lt;br&gt;編集画面" style="rounded=0;whiteSpace=wrap;html=1;" parent="1" vertex="1">
          <mxGeometry x="240" y="420" width="120" height="40" as="geometry" />
        </mxCell>
        <mxCell id="JIiG9f2djd5JSEeI8ZKf-16" style="edgeStyle=none;rounded=0;orthogonalLoop=1;jettySize=auto;html=1;entryX=0.25;entryY=0;entryDx=0;entryDy=0;exitX=0;exitY=0.5;exitDx=0;exitDy=0;" parent="1" source="JIiG9f2djd5JSEeI8ZKf-38" target="JIiG9f2djd5JSEeI8ZKf-15" edge="1">
          <mxGeometry relative="1" as="geometry">
            <mxPoint x="-40" y="520" as="targetPoint" />
            <mxPoint x="140" y="400" as="sourcePoint" />
            <Array as="points">
              <mxPoint x="60" y="440" />
              <mxPoint x="60" y="580" />
              <mxPoint x="110" y="580" />
            </Array>
          </mxGeometry>
        </mxCell>
        <mxCell id="JIiG9f2djd5JSEeI8ZKf-19" style="edgeStyle=none;rounded=0;orthogonalLoop=1;jettySize=auto;html=1;" parent="1" source="JIiG9f2djd5JSEeI8ZKf-12" target="JIiG9f2djd5JSEeI8ZKf-15" edge="1">
          <mxGeometry relative="1" as="geometry" />
        </mxCell>
        <mxCell id="JIiG9f2djd5JSEeI8ZKf-12" value="棚卸表作成・設定&lt;br&gt;編集画面" style="rounded=0;whiteSpace=wrap;html=1;" parent="1" vertex="1">
          <mxGeometry x="80" y="520" width="120" height="40" as="geometry" />
        </mxCell>
        <mxCell id="JIiG9f2djd5JSEeI8ZKf-43" style="edgeStyle=none;rounded=0;orthogonalLoop=1;jettySize=auto;html=1;entryX=0.617;entryY=1;entryDx=0;entryDy=0;entryPerimeter=0;" parent="1" source="JIiG9f2djd5JSEeI8ZKf-15" target="JIiG9f2djd5JSEeI8ZKf-3" edge="1">
          <mxGeometry relative="1" as="geometry">
            <Array as="points">
              <mxPoint x="220" y="620" />
              <mxPoint x="220" y="400" />
              <mxPoint x="154" y="400" />
            </Array>
          </mxGeometry>
        </mxCell>
        <mxCell id="JIiG9f2djd5JSEeI8ZKf-45" style="edgeStyle=none;rounded=0;orthogonalLoop=1;jettySize=auto;html=1;" parent="1" source="JIiG9f2djd5JSEeI8ZKf-15" target="JIiG9f2djd5JSEeI8ZKf-44" edge="1">
          <mxGeometry relative="1" as="geometry" />
        </mxCell>
        <mxCell id="JIiG9f2djd5JSEeI8ZKf-15" value="棚卸表編集&lt;br&gt;画面" style="rounded=0;whiteSpace=wrap;html=1;" parent="1" vertex="1">
          <mxGeometry x="80" y="600" width="120" height="40" as="geometry" />
        </mxCell>
        <mxCell id="JIiG9f2djd5JSEeI8ZKf-22" style="edgeStyle=none;rounded=0;orthogonalLoop=1;jettySize=auto;html=1;" parent="1" source="JIiG9f2djd5JSEeI8ZKf-20" target="JIiG9f2djd5JSEeI8ZKf-2" edge="1">
          <mxGeometry relative="1" as="geometry" />
        </mxCell>
        <mxCell id="JIiG9f2djd5JSEeI8ZKf-20" value="企業管理者&lt;br&gt;ユーザー&lt;br&gt;（KIT,CMC）" style="rhombus;whiteSpace=wrap;html=1;" parent="1" vertex="1">
          <mxGeometry x="80" y="120" width="120" height="80" as="geometry" />
        </mxCell>
        <mxCell id="JIiG9f2djd5JSEeI8ZKf-26" value="" style="edgeStyle=none;rounded=0;orthogonalLoop=1;jettySize=auto;html=1;" parent="1" source="JIiG9f2djd5JSEeI8ZKf-23" target="JIiG9f2djd5JSEeI8ZKf-20" edge="1">
          <mxGeometry relative="1" as="geometry" />
        </mxCell>
        <mxCell id="JIiG9f2djd5JSEeI8ZKf-23" value="ログイン" style="rounded=1;whiteSpace=wrap;html=1;arcSize=50;" parent="1" vertex="1">
          <mxGeometry x="80" y="40" width="120" height="40" as="geometry" />
        </mxCell>
        <mxCell id="JIiG9f2djd5JSEeI8ZKf-27" value="No" style="text;html=1;strokeColor=none;fillColor=none;align=center;verticalAlign=middle;whiteSpace=wrap;rounded=0;" parent="1" vertex="1">
          <mxGeometry x="200" y="140" width="40" height="20" as="geometry" />
        </mxCell>
        <mxCell id="JIiG9f2djd5JSEeI8ZKf-29" value="Yes" style="text;html=1;strokeColor=none;fillColor=none;align=center;verticalAlign=middle;whiteSpace=wrap;rounded=0;" parent="1" vertex="1">
          <mxGeometry x="140" y="200" width="40" height="20" as="geometry" />
        </mxCell>
        <mxCell id="5xNr5Emgi43Tvl490eg--5" style="edgeStyle=orthogonalEdgeStyle;rounded=0;orthogonalLoop=1;jettySize=auto;html=1;" parent="1" source="JIiG9f2djd5JSEeI8ZKf-35" target="5xNr5Emgi43Tvl490eg--3" edge="1">
          <mxGeometry relative="1" as="geometry" />
        </mxCell>
        <mxCell id="JIiG9f2djd5JSEeI8ZKf-35" value="ユーザー一覧&lt;br&gt;画面" style="rounded=0;whiteSpace=wrap;html=1;" parent="1" vertex="1">
          <mxGeometry x="380" y="420" width="120" height="40" as="geometry" />
        </mxCell>
        <mxCell id="JIiG9f2djd5JSEeI8ZKf-40" style="edgeStyle=none;rounded=0;orthogonalLoop=1;jettySize=auto;html=1;entryX=0.5;entryY=0;entryDx=0;entryDy=0;exitX=0.5;exitY=1;exitDx=0;exitDy=0;" parent="1" source="JIiG9f2djd5JSEeI8ZKf-38" target="JIiG9f2djd5JSEeI8ZKf-12" edge="1">
          <mxGeometry relative="1" as="geometry">
            <mxPoint x="140" y="500" as="sourcePoint" />
          </mxGeometry>
        </mxCell>
        <mxCell id="JIiG9f2djd5JSEeI8ZKf-38" value="新規作成" style="rhombus;whiteSpace=wrap;html=1;" parent="1" vertex="1">
          <mxGeometry x="80" y="400" width="120" height="80" as="geometry" />
        </mxCell>
        <mxCell id="JIiG9f2djd5JSEeI8ZKf-39" style="edgeStyle=none;rounded=0;orthogonalLoop=1;jettySize=auto;html=1;entryX=0.5;entryY=0;entryDx=0;entryDy=0;" parent="1" source="JIiG9f2djd5JSEeI8ZKf-38" target="JIiG9f2djd5JSEeI8ZKf-38" edge="1">
          <mxGeometry relative="1" as="geometry" />
        </mxCell>
        <mxCell id="JIiG9f2djd5JSEeI8ZKf-41" value="No" style="text;html=1;strokeColor=none;fillColor=none;align=center;verticalAlign=middle;whiteSpace=wrap;rounded=0;" parent="1" vertex="1">
          <mxGeometry x="40" y="420" width="40" height="20" as="geometry" />
        </mxCell>
        <mxCell id="JIiG9f2djd5JSEeI8ZKf-42" value="Yes" style="text;html=1;strokeColor=none;fillColor=none;align=center;verticalAlign=middle;whiteSpace=wrap;rounded=0;" parent="1" vertex="1">
          <mxGeometry x="140" y="480" width="40" height="20" as="geometry" />
        </mxCell>
        <mxCell id="JIiG9f2djd5JSEeI8ZKf-44" value="ログアウト" style="rounded=1;whiteSpace=wrap;html=1;arcSize=50;" parent="1" vertex="1">
          <mxGeometry x="80" y="680" width="120" height="40" as="geometry" />
        </mxCell>
        <mxCell id="AHP80_Op1Ef27McSkYFA-1" style="edgeStyle=orthogonalEdgeStyle;rounded=0;orthogonalLoop=1;jettySize=auto;html=1;" parent="1" source="5xNr5Emgi43Tvl490eg--1" target="5xNr5Emgi43Tvl490eg--6" edge="1">
          <mxGeometry relative="1" as="geometry" />
        </mxCell>
        <mxCell id="5xNr5Emgi43Tvl490eg--1" value="グループ一覧&lt;br&gt;画面" style="rounded=0;whiteSpace=wrap;html=1;" parent="1" vertex="1">
          <mxGeometry x="520" y="420" width="120" height="40" as="geometry" />
        </mxCell>
        <mxCell id="5xNr5Emgi43Tvl490eg--3" value="ユーザー登録/編集&lt;br&gt;画面" style="rounded=0;whiteSpace=wrap;html=1;" parent="1" vertex="1">
          <mxGeometry x="380" y="520" width="120" height="40" as="geometry" />
        </mxCell>
        <mxCell id="5xNr5Emgi43Tvl490eg--6" value="グループ登録/編集&lt;br&gt;画面" style="rounded=0;whiteSpace=wrap;html=1;" parent="1" vertex="1">
          <mxGeometry x="520" y="520" width="120" height="40" as="geometry" />
        </mxCell>
        <mxCell id="HAvZMv1LIubI1ggnkloS-1" value="企業追加・編集&lt;br&gt;・削除画面" style="whiteSpace=wrap;html=1;rounded=0;" vertex="1" parent="1">
          <mxGeometry x="280" y="240" width="120" height="40" as="geometry" />
        </mxCell>
        <mxCell id="HAvZMv1LIubI1ggnkloS-5" style="edgeStyle=orthogonalEdgeStyle;rounded=0;orthogonalLoop=1;jettySize=auto;html=1;exitX=1;exitY=0.25;exitDx=0;exitDy=0;entryX=0.5;entryY=0;entryDx=0;entryDy=0;" edge="1" parent="1" source="JIiG9f2djd5JSEeI8ZKf-3" target="HAvZMv1LIubI1ggnkloS-6">
          <mxGeometry relative="1" as="geometry">
            <mxPoint x="210" y="350" as="sourcePoint" />
            <mxPoint x="740" y="410" as="targetPoint" />
          </mxGeometry>
        </mxCell>
        <mxCell id="HAvZMv1LIubI1ggnkloS-9" value="" style="edgeStyle=orthogonalEdgeStyle;rounded=0;orthogonalLoop=1;jettySize=auto;html=1;" edge="1" parent="1" source="HAvZMv1LIubI1ggnkloS-6">
          <mxGeometry relative="1" as="geometry">
            <mxPoint x="740" y="520" as="targetPoint" />
          </mxGeometry>
        </mxCell>
        <mxCell id="HAvZMv1LIubI1ggnkloS-6" value="企業管理者&lt;br&gt;ユーザー&lt;br&gt;（KIT,CMC）" style="rhombus;whiteSpace=wrap;html=1;" vertex="1" parent="1">
          <mxGeometry x="680" y="400" width="120" height="80" as="geometry" />
        </mxCell>
        <mxCell id="HAvZMv1LIubI1ggnkloS-7" value="Yes" style="text;html=1;strokeColor=none;fillColor=none;align=center;verticalAlign=middle;whiteSpace=wrap;rounded=0;" vertex="1" parent="1">
          <mxGeometry x="760" y="470" width="40" height="20" as="geometry" />
        </mxCell>
        <mxCell id="HAvZMv1LIubI1ggnkloS-11" value="Excel取込機能" style="rhombus;whiteSpace=wrap;html=1;" vertex="1" parent="1">
          <mxGeometry x="680" y="520" width="120" height="80" as="geometry" />
        </mxCell>
        <mxCell id="HAvZMv1LIubI1ggnkloS-14" value="棚卸表&lt;br&gt;コピー機能" style="rhombus;whiteSpace=wrap;html=1;" vertex="1" parent="1">
          <mxGeometry x="240" y="600" width="120" height="80" as="geometry" />
        </mxCell>
      </root>
    </mxGraphModel>
  </diagram>
</mxfile>
